<svg width="44" height="44" viewBox="0 0 44 44" fill="none" xmlns="http://www.w3.org/2000/svg">
<rect width="43.2446" height="43.2446" rx="3.47945" fill="#E00028"/>
<path d="M10.0268 25.7022H6.95541C5.71445 25.7022 4.72168 24.6939 4.72168 23.4684C4.72168 22.9255 4.92334 22.4136 5.2646 21.9948C5.62138 21.5915 6.10225 21.3278 6.64517 21.2502L10.1819 20.7228V20.4746C10.1819 20.2109 10.0733 19.9627 9.87168 19.7921C9.67002 19.6214 9.42183 19.5284 9.15812 19.5594L5.94713 19.9472C5.52831 19.9937 5.15602 19.699 5.10948 19.2802C5.06294 18.8613 5.35767 18.4735 5.7765 18.427L8.97198 18.0547C9.65451 17.9772 10.3526 18.1943 10.8645 18.6597C11.3763 19.1251 11.6711 19.7921 11.6711 20.4746V24.0424C11.6866 24.9576 10.942 25.7022 10.0268 25.7022ZM10.1664 22.2585L6.86234 22.7549C6.50557 22.8014 6.24186 23.1116 6.24186 23.4684C6.24186 23.8562 6.56761 24.182 6.95541 24.182H10.0268C10.1044 24.182 10.1664 24.1199 10.1664 24.0424V22.2585Z" fill="white"/>
<path d="M20.1251 25.7021C19.7839 25.7021 19.4581 25.485 19.3495 25.1282L17.7983 20.2729C17.7363 20.1023 17.6277 19.9472 17.4881 19.8386C17.1623 19.5904 16.7125 19.5904 16.3867 19.8386C16.2316 19.9472 16.123 20.1023 16.0765 20.2729L14.5253 25.1282C14.3857 25.5625 13.9358 25.7952 13.5015 25.6556C13.0671 25.516 12.8345 25.0661 12.9741 24.6318L14.5253 19.7765C14.6804 19.2801 14.9906 18.8458 15.425 18.5201C15.8438 18.2098 16.3712 18.0392 16.9296 18.0392C17.4881 18.0392 18.0155 18.2098 18.4498 18.5356C18.8686 18.8458 19.1789 19.2801 19.3495 19.792L20.9007 24.6473C21.0403 25.0817 20.8076 25.5315 20.3733 25.6711C20.2957 25.6866 20.2027 25.7021 20.1251 25.7021Z" fill="white"/>
<path d="M29.3087 25.702C28.9674 25.702 28.6417 25.4849 28.5331 25.1281L26.9819 20.2728C26.9199 20.1022 26.8113 19.9471 26.6717 19.8385C26.3459 19.5903 25.8961 19.5903 25.5703 19.8385C25.4152 19.9471 25.3066 20.1022 25.2601 20.2728L23.7089 25.1281C23.5693 25.5624 23.1194 25.7951 22.6851 25.6555C22.2507 25.5159 22.018 25.066 22.1577 24.6317L23.7089 19.7764C23.864 19.28 24.1742 18.8457 24.6086 18.5199C25.0584 18.1942 25.5858 18.0236 26.1287 18.0236C26.6872 18.0236 27.2146 18.1942 27.6489 18.5199C28.0677 18.8302 28.378 19.2645 28.5486 19.7764L30.0998 24.6317C30.2394 25.066 30.0068 25.5159 29.5724 25.6555C29.4793 25.6865 29.4018 25.702 29.3087 25.702Z" fill="white"/>
<path d="M34.8927 25.7487C32.752 25.7487 31.0146 24.0113 31.0146 21.8707C31.0146 19.73 32.752 17.9927 34.8927 17.9927C37.0333 17.9927 38.7707 19.73 38.7707 21.8707C38.7707 24.0113 37.0178 25.7487 34.8927 25.7487ZM34.8927 19.5129C33.6052 19.5129 32.5503 20.5677 32.5503 21.8707C32.5503 23.1737 33.6052 24.2285 34.8927 24.2285C36.1802 24.2285 37.235 23.1737 37.235 21.8707C37.235 20.5677 36.1802 19.5129 34.8927 19.5129Z" fill="white"/>
<path d="M34.8939 23.034C34.2424 23.034 33.7305 22.5221 33.7305 21.8706C33.7305 21.2346 34.2424 20.7072 34.8939 20.7072C35.5299 20.7072 36.0573 21.2191 36.0573 21.8706C36.0418 22.5066 35.5299 23.034 34.8939 23.034Z" fill="white"/>
<path d="M10.0268 25.7022H6.95541C5.71445 25.7022 4.72168 24.6939 4.72168 23.4684C4.72168 22.9255 4.92334 22.4136 5.2646 21.9948C5.62138 21.5915 6.10225 21.3278 6.64517 21.2502L10.1819 20.7228V20.4746C10.1819 20.2109 10.0733 19.9627 9.87168 19.7921C9.67002 19.6214 9.42183 19.5284 9.15812 19.5594L5.94713 19.9472C5.52831 19.9937 5.15602 19.699 5.10948 19.2802C5.06294 18.8613 5.35767 18.4735 5.7765 18.427L8.97198 18.0547C9.65451 17.9772 10.3526 18.1943 10.8645 18.6597C11.3763 19.1251 11.6711 19.7921 11.6711 20.4746V24.0424C11.6866 24.9576 10.942 25.7022 10.0268 25.7022ZM10.1664 22.2585L6.86234 22.7549C6.50557 22.8014 6.24186 23.1116 6.24186 23.4684C6.24186 23.8562 6.56761 24.182 6.95541 24.182H10.0268C10.1044 24.182 10.1664 24.1199 10.1664 24.0424V22.2585Z" fill="white"/>
<path d="M20.1251 25.7021C19.7839 25.7021 19.4581 25.485 19.3495 25.1282L17.7983 20.2729C17.7363 20.1023 17.6277 19.9472 17.4881 19.8386C17.1623 19.5904 16.7125 19.5904 16.3867 19.8386C16.2316 19.9472 16.123 20.1023 16.0765 20.2729L14.5253 25.1282C14.3857 25.5625 13.9358 25.7952 13.5015 25.6556C13.0671 25.516 12.8345 25.0661 12.9741 24.6318L14.5253 19.7765C14.6804 19.2801 14.9906 18.8458 15.425 18.5201C15.8438 18.2098 16.3712 18.0392 16.9296 18.0392C17.4881 18.0392 18.0155 18.2098 18.4498 18.5356C18.8686 18.8458 19.1789 19.2801 19.3495 19.792L20.9007 24.6473C21.0403 25.0817 20.8076 25.5315 20.3733 25.6711C20.2957 25.6866 20.2027 25.7021 20.1251 25.7021Z" fill="white"/>
<path d="M29.3087 25.702C28.9674 25.702 28.6417 25.4849 28.5331 25.1281L26.9819 20.2728C26.9199 20.1022 26.8113 19.9471 26.6717 19.8385C26.3459 19.5903 25.8961 19.5903 25.5703 19.8385C25.4152 19.9471 25.3066 20.1022 25.2601 20.2728L23.7089 25.1281C23.5693 25.5624 23.1194 25.7951 22.6851 25.6555C22.2507 25.5159 22.018 25.066 22.1577 24.6317L23.7089 19.7764C23.864 19.28 24.1742 18.8457 24.6086 18.5199C25.0584 18.1942 25.5858 18.0236 26.1287 18.0236C26.6872 18.0236 27.2146 18.1942 27.6489 18.5199C28.0677 18.8302 28.378 19.2645 28.5486 19.7764L30.0998 24.6317C30.2394 25.066 30.0068 25.5159 29.5724 25.6555C29.4793 25.6865 29.4018 25.702 29.3087 25.702Z" fill="white"/>
<path d="M34.8927 25.7487C32.752 25.7487 31.0146 24.0113 31.0146 21.8707C31.0146 19.73 32.752 17.9927 34.8927 17.9927C37.0333 17.9927 38.7707 19.73 38.7707 21.8707C38.7707 24.0113 37.0178 25.7487 34.8927 25.7487ZM34.8927 19.5129C33.6052 19.5129 32.5503 20.5677 32.5503 21.8707C32.5503 23.1737 33.6052 24.2285 34.8927 24.2285C36.1802 24.2285 37.235 23.1737 37.235 21.8707C37.235 20.5677 36.1802 19.5129 34.8927 19.5129Z" fill="white"/>
<path d="M34.8939 23.034C34.2424 23.034 33.7305 22.5221 33.7305 21.8706C33.7305 21.2346 34.2424 20.7072 34.8939 20.7072C35.5299 20.7072 36.0573 21.2191 36.0573 21.8706C36.0418 22.5066 35.5299 23.034 34.8939 23.034Z" fill="white"/>
</svg>
