<svg width="44" height="44" viewBox="0 0 44 44" fill="none" xmlns="http://www.w3.org/2000/svg">
<rect y="0.377686" width="43.2446" height="43.2446" rx="3.47945" fill="#1B4A96"/>
<path d="M24.2838 33.4153H23.2554V32.1706H24.1309V31.0853H23.2554V30.0125H24.1866V28.8739H21.8662V34.5543H24.2838V33.4153Z" fill="white"/>
<path d="M13.4644 29.9994H13.8955V34.5543H15.2846V28.8605H12.0752V34.5543H13.4644V29.9994Z" fill="white"/>
<path d="M11.6012 33.3096H10.4756V31.9325H11.4344V30.741H10.4756V29.5491H11.5038V28.3044H8.94727V34.5543H11.6012V33.3096Z" fill="white"/>
<path d="M26.148 32.1706H26.5787V34.5543H27.9683V28.8739H26.5787V30.9131H26.148V28.8739H24.7588V34.5543H26.148V32.1706Z" fill="white"/>
<path d="M29.1793 34.5543H30.5689V30.0125H31.4022V28.8739H28.3594V30.0125H29.1793V34.5543Z" fill="white"/>
<path d="M17.1491 28.8739H15.7598V34.5543H17.1491V28.8739Z" fill="white"/>
<path d="M21.4706 33.3095H21.1509V28.3044H19.6227V33.3095H19.1502V28.3044H17.6221V34.5542H20.4145V35.1722H21.4706V33.3095Z" fill="white"/>
<path d="M33.322 31.186C32.9167 31.186 32.5864 30.8556 32.5864 30.4494C32.5864 30.0438 32.9167 29.7135 33.322 29.7135C33.7281 29.7135 34.0585 30.0438 34.0585 30.4494C34.0585 30.8556 33.7281 31.186 33.322 31.186ZM34.7445 29.675C34.7089 29.5055 34.6397 29.361 34.5367 29.242C34.4339 29.1229 34.2798 29.0317 34.0755 28.9688C33.8702 28.9055 33.5794 28.8739 33.2017 28.8739H31.7969V34.5543H33.1861V32.2633H33.5625C33.8675 32.2633 34.1144 32.219 34.3038 32.1303C34.4928 32.0416 34.6228 31.9142 34.693 31.7482C34.7628 31.5824 34.7979 31.3182 34.7979 30.956V30.4618C34.7979 30.1068 34.7802 29.8444 34.7445 29.675Z" fill="white"/>
<path d="M33.4248 30.8166L33.2663 30.5107V30.8166H33.0326V30.0829H33.2663V30.3976L33.4154 30.0829H33.6841L33.4844 30.4452L33.712 30.8166H33.4248ZM33.3211 29.8901C33.0129 29.8901 32.7617 30.1416 32.7617 30.4494C32.7617 30.7583 33.0129 31.0089 33.3211 31.0089C33.6302 31.0089 33.881 30.7583 33.881 30.4494C33.881 30.1416 33.6302 29.8901 33.3211 29.8901Z" fill="white"/>
<path d="M35.3372 29.2066C35.3323 29.2139 35.3255 29.219 35.3161 29.2225C35.3042 29.227 35.2866 29.2292 35.2638 29.2292H35.1664V29.1371H35.2775C35.3023 29.1371 35.3209 29.1416 35.3309 29.1503C35.3402 29.1585 35.3446 29.1686 35.3446 29.1816C35.3446 29.1907 35.3422 29.1989 35.3372 29.2066ZM35.4838 29.4802L35.4096 29.3636C35.3954 29.342 35.3805 29.3242 35.3654 29.309C35.3859 29.3007 35.4033 29.2899 35.4168 29.2758C35.4407 29.2504 35.4528 29.2186 35.4528 29.1816C35.4528 29.1534 35.4458 29.1272 35.4315 29.1039C35.4168 29.0796 35.3964 29.0624 35.3716 29.0526C35.3484 29.0437 35.3169 29.0395 35.2751 29.0395H35.0596V29.5187H35.1664V29.3281H35.2074C35.2244 29.3281 35.2312 29.3292 35.2339 29.3298C35.2392 29.3311 35.2454 29.3339 35.2517 29.3378C35.2555 29.3405 35.2629 29.3466 35.2742 29.3608C35.2843 29.3737 35.2978 29.393 35.314 29.4181C35.3137 29.418 35.3707 29.5071 35.3707 29.5071L35.3778 29.5187H35.5081L35.4838 29.4802Z" fill="white"/>
<path d="M35.2565 28.8378C35.0122 28.8378 34.8135 29.0366 34.8135 29.281C34.8135 29.5252 35.0122 29.724 35.2565 29.724C35.5008 29.724 35.6996 29.5252 35.6996 29.281C35.6996 29.0366 35.5008 28.8378 35.2565 28.8378ZM35.6094 29.281C35.6094 29.4754 35.451 29.6337 35.2565 29.6337C35.0618 29.6337 34.9037 29.4754 34.9037 29.281C34.9037 29.0862 35.0618 28.928 35.2565 28.928C35.451 28.928 35.6094 29.0862 35.6094 29.281Z" fill="white"/>
<path d="M21.6383 26.0816C17.8695 26.0816 14.8033 23.0155 14.8033 19.2467C14.8033 15.8892 17.2373 13.0915 20.4329 12.5203V14.0165C20.4329 14.4182 20.6221 14.7876 20.9373 15.0216V16.2781H18.1213C17.7959 16.2781 17.5014 16.4426 17.3305 16.7227C17.1649 17.0014 17.1552 17.3488 17.3044 17.6283L20.8622 24.4199C21.022 24.7248 21.3361 24.9145 21.6814 24.9145C22.0283 24.9145 22.3421 24.7244 22.4994 24.4199L26.0593 17.6294C26.2092 17.3457 26.1988 16.9977 26.0306 16.7185C25.8636 16.4471 25.5617 16.2781 25.2427 16.2781H22.4256V15.0224C22.7427 14.7876 22.9328 14.4178 22.9328 14.0165V12.5363C26.0846 13.143 28.4734 15.9205 28.4734 19.2467C28.4734 23.0155 25.4072 26.0816 21.6383 26.0816ZM22.9328 10.9873V9.60629C22.9328 8.91781 22.3714 8.35815 21.6814 8.35815C20.993 8.35815 20.4329 8.91781 20.4329 9.60629V10.9747C16.3925 11.5609 13.2783 15.0462 13.2783 19.2467C13.2783 23.8563 17.0286 27.6066 21.6383 27.6066C26.248 27.6066 29.9983 23.8563 29.9983 19.2467C29.9983 15.0772 26.93 11.6113 22.9328 10.9873Z" fill="white"/>
</svg>
