<svg width="206" height="129" viewBox="0 0 206 129" fill="none" xmlns="http://www.w3.org/2000/svg">
<path d="M29.6756 63.7934H41.7931C42.2465 63.7934 42.638 63.9582 42.9678 64.288C43.2975 64.6177 43.4624 65.0092 43.4624 65.4626V90.3159C43.4624 96.0862 41.6695 100.434 38.0837 103.361C34.4979 106.246 29.6138 107.688 23.4313 107.688C17.2901 107.688 12.406 106.246 8.77903 103.361C5.19323 100.476 3.40033 96.1274 3.40033 90.3159V65.4626C3.40033 65.0092 3.56519 64.6177 3.89492 64.288C4.22465 63.9582 4.6162 63.7934 5.06958 63.7934H17.1871C17.6405 63.7934 18.032 63.9582 18.3618 64.288C18.6915 64.6177 18.8564 65.0092 18.8564 65.4626V90.5014C18.8564 93.675 20.3814 95.2618 23.4313 95.2618C26.4813 95.2618 28.0063 93.675 28.0063 90.5014V65.4626C28.0063 65.0092 28.1712 64.6177 28.5009 64.288C28.8307 63.9582 29.2222 63.7934 29.6756 63.7934ZM83.1419 63.7934H94.332C94.7854 63.7934 95.177 63.9582 95.5067 64.288C95.8364 64.6177 96.0013 65.0092 96.0013 65.4626V105.401C96.0013 105.854 95.8364 106.246 95.5067 106.576C95.177 106.905 94.7854 107.07 94.332 107.07H84.5638C83.4922 107.07 82.6473 106.596 82.029 105.648L71.5807 89.8831V105.401C71.5807 105.854 71.4159 106.246 71.0862 106.576C70.7564 106.905 70.3649 107.07 69.9115 107.07H58.7213C58.2679 107.07 57.8764 106.905 57.5467 106.576C57.2169 106.246 57.0521 105.854 57.0521 105.401V65.4626C57.0521 65.0092 57.2169 64.6177 57.5467 64.288C57.8764 63.9582 58.2679 63.7934 58.7213 63.7934H68.4895C69.6436 63.7934 70.4885 64.2673 71.0243 65.2153L81.4726 82.3406V65.4626C81.4726 65.0092 81.6375 64.6177 81.9672 64.288C82.2969 63.9582 82.6885 63.7934 83.1419 63.7934ZM123.746 63.7934H137.162C138.645 63.7934 139.573 64.4734 139.944 65.8336L153.731 105.277C153.772 105.401 153.792 105.607 153.792 105.896C153.792 106.143 153.648 106.411 153.36 106.699C153.112 106.947 152.803 107.07 152.432 107.07H140.995C139.758 107.07 138.955 106.555 138.584 105.525L137.1 101.444H123.808L122.324 105.525C121.953 106.555 121.149 107.07 119.913 107.07H108.475C108.104 107.07 107.775 106.947 107.486 106.699C107.239 106.411 107.115 106.143 107.115 105.896C107.115 105.607 107.136 105.401 107.177 105.277L120.964 65.8336C121.335 64.4734 122.262 63.7934 123.746 63.7934ZM126.961 89.3886H133.947L130.423 77.8893L126.961 89.3886ZM163.818 77.3947C163.818 73.1906 165.549 69.7697 169.011 67.1319C172.514 64.494 177.089 63.1751 182.736 63.1751C188.424 63.1751 193.06 64.5559 196.646 67.3173C200.273 70.0788 202.087 72.9639 202.087 75.9727C202.087 76.3437 201.942 76.6734 201.654 76.9619C201.407 77.2092 201.118 77.3328 200.788 77.3328H188.424C187.476 77.3328 186.61 76.9825 185.827 76.2818C185.044 75.5812 183.993 75.2308 182.674 75.2308C180.695 75.2308 179.706 75.8079 179.706 76.9619C179.706 77.5801 180.18 78.0953 181.128 78.5075C182.117 78.9197 183.931 79.2906 186.569 79.6203C192.71 80.4034 197.079 81.846 199.676 83.948C202.313 86.0088 203.632 89.1619 203.632 93.4071C203.632 97.6112 201.695 101.053 197.821 103.732C193.988 106.37 188.959 107.688 182.736 107.688C176.512 107.688 171.628 106.411 168.083 103.855C164.539 101.3 162.766 98.1882 162.766 94.52C162.766 94.149 162.89 93.8399 163.137 93.5926C163.426 93.3041 163.756 93.1598 164.127 93.1598H175.873C176.739 93.1598 177.687 93.572 178.717 94.3963C179.789 95.2206 181.252 95.6328 183.107 95.6328C186.198 95.6328 187.743 95.0558 187.743 93.9017C187.743 93.1598 187.187 92.6034 186.074 92.2325C184.961 91.8203 182.859 91.4081 179.768 90.996C169.134 89.5946 163.818 85.0609 163.818 77.3947Z" fill="white"/>
<path d="M104.877 0.494141C103.672 0.494141 102.203 0.494141 100.468 0.494141C99.0941 0.494141 97.5279 0.494141 95.793 0.494141H82.227C81.721 0.494141 81.2872 0.686908 80.9258 1.04835C80.5643 1.40979 80.3716 1.84351 80.3716 2.34953V23.7708L92.9256 11.1686L93.2629 10.8313L93.6003 11.1686L96.0099 13.5782L96.3472 13.9156L96.0099 14.2529L86.1787 24.1564L96.0099 34.0598L96.3472 34.3972L96.0099 34.7345L93.6003 37.1441L93.2629 37.4814L92.9256 37.1441L80.3716 24.5419V29.9635C80.3716 36.4212 82.3715 41.2404 86.3715 44.4452C88.8052 46.3728 91.7449 47.6981 95.1665 48.4692L104.877 0.494141Z" fill="#0157FF"/>
<path d="M112.588 37.144L112.25 37.4813L111.913 37.144L109.503 34.7344L109.166 34.3971L109.503 34.0597L119.335 24.1563L109.503 14.2528L109.166 13.9155L109.503 13.5782L111.913 11.1686L112.25 10.8312L112.588 11.1686L125.118 23.7707V2.34944C125.118 1.84342 124.925 1.4097 124.563 1.04826C124.202 0.686817 123.768 0.494049 123.262 0.494049H109.985H109.72C109.624 0.494049 109.479 0.494049 109.311 0.494049L99.4795 49.1197C100.54 49.2161 101.624 49.2643 102.732 49.2643C109.648 49.2643 115.094 47.6498 119.094 44.4451C123.094 41.1921 125.093 36.3729 125.093 29.9634V24.5418L112.588 37.144Z" fill="#0157FF"/>
<path d="M30.2672 125.661V124.177L30.2009 123.899V121.368C30.2009 120.83 30.042 120.415 29.724 120.123C29.4149 119.823 28.9468 119.673 28.3197 119.673C27.9046 119.673 27.4983 119.743 27.1009 119.885C26.7034 120.017 26.3678 120.198 26.094 120.428L25.5641 119.474C25.9262 119.182 26.359 118.962 26.8624 118.812C27.3747 118.653 27.909 118.573 28.4654 118.573C29.4281 118.573 30.17 118.807 30.6911 119.275C31.2122 119.743 31.4727 120.459 31.4727 121.421V125.661H30.2672ZM27.962 125.74C27.4409 125.74 26.9817 125.652 26.5842 125.475C26.1956 125.299 25.8953 125.056 25.6834 124.747C25.4714 124.429 25.3654 124.071 25.3654 123.674C25.3654 123.294 25.4537 122.949 25.6304 122.64C25.8158 122.331 26.1117 122.084 26.518 121.898C26.9331 121.713 27.4895 121.62 28.1872 121.62H30.4129V122.534H28.2402C27.6043 122.534 27.176 122.64 26.9552 122.852C26.7344 123.064 26.624 123.32 26.624 123.621C26.624 123.965 26.7609 124.243 27.0346 124.455C27.3084 124.658 27.6882 124.76 28.174 124.76C28.6509 124.76 29.066 124.654 29.4193 124.442C29.7814 124.23 30.042 123.921 30.2009 123.515L30.4526 124.389C30.2848 124.804 29.989 125.135 29.565 125.383C29.1411 125.621 28.6067 125.74 27.962 125.74ZM33.7629 125.661V118.639H37.0219C37.8433 118.639 38.488 118.798 38.9561 119.116C39.433 119.425 39.6715 119.867 39.6715 120.441C39.6715 121.015 39.4463 121.461 38.9959 121.779C38.5543 122.088 37.9669 122.243 37.2339 122.243L37.4326 121.898C38.2716 121.898 38.8943 122.053 39.3006 122.362C39.7068 122.671 39.91 123.126 39.91 123.727C39.91 124.336 39.6803 124.813 39.2211 125.157C38.7706 125.493 38.0773 125.661 37.1411 125.661H33.7629ZM35.0082 124.68H37.0484C37.5783 124.68 37.9758 124.601 38.2407 124.442C38.5057 124.274 38.6382 124.009 38.6382 123.647C38.6382 123.276 38.5145 123.007 38.2672 122.839C38.0288 122.662 37.649 122.574 37.1279 122.574H35.0082V124.68ZM35.0082 121.66H36.9159C37.4017 121.66 37.7682 121.572 38.0155 121.395C38.2716 121.209 38.3997 120.953 38.3997 120.627C38.3997 120.291 38.2716 120.039 38.0155 119.871C37.7682 119.704 37.4017 119.62 36.9159 119.62H35.0082V121.66ZM43.2916 125.661V119.421L43.6096 119.752H40.7215V118.639H47.1336V119.752H44.2587L44.5634 119.421V125.661H43.2916ZM51.1308 125.74C50.4243 125.74 49.7972 125.586 49.2496 125.277C48.702 124.967 48.2693 124.544 47.9513 124.005C47.6334 123.457 47.4744 122.839 47.4744 122.15C47.4744 121.452 47.6334 120.834 47.9513 120.295C48.2693 119.757 48.702 119.337 49.2496 119.037C49.7972 118.728 50.4243 118.573 51.1308 118.573C51.8286 118.573 52.4512 118.728 52.9988 119.037C53.5552 119.337 53.988 119.757 54.2971 120.295C54.6151 120.825 54.7741 121.443 54.7741 122.15C54.7741 122.848 54.6151 123.466 54.2971 124.005C53.988 124.544 53.5552 124.967 52.9988 125.277C52.4512 125.586 51.8286 125.74 51.1308 125.74ZM51.1308 124.627C51.5813 124.627 51.9831 124.526 52.3364 124.323C52.6985 124.12 52.9812 123.833 53.1843 123.462C53.3874 123.082 53.489 122.645 53.489 122.15C53.489 121.647 53.3874 121.214 53.1843 120.852C52.9812 120.481 52.6985 120.194 52.3364 119.991C51.9831 119.787 51.5813 119.686 51.1308 119.686C50.6804 119.686 50.2786 119.787 49.9253 119.991C49.572 120.194 49.2894 120.481 49.0774 120.852C48.8654 121.214 48.7594 121.647 48.7594 122.15C48.7594 122.645 48.8654 123.082 49.0774 123.462C49.2894 123.833 49.572 124.12 49.9253 124.323C50.2786 124.526 50.6804 124.627 51.1308 124.627ZM56.6106 125.661V118.639H57.9221L60.9427 123.833H60.4127L63.5128 118.639H64.7051V125.661H63.5525V120.07L63.7645 120.189L60.9294 124.866H60.373L57.5247 120.097L57.7764 120.044V125.661H56.6106ZM71.4861 125.661V124.177L71.4199 123.899V121.368C71.4199 120.83 71.2609 120.415 70.943 120.123C70.6338 119.823 70.1657 119.673 69.5387 119.673C69.1236 119.673 68.7173 119.743 68.3198 119.885C67.9224 120.017 67.5868 120.198 67.313 120.428L66.7831 119.474C67.1452 119.182 67.578 118.962 68.0814 118.812C68.5936 118.653 69.128 118.573 69.6844 118.573C70.6471 118.573 71.389 118.807 71.9101 119.275C72.4312 119.743 72.6917 120.459 72.6917 121.421V125.661H71.4861ZM69.181 125.74C68.6599 125.74 68.2006 125.652 67.8032 125.475C67.4146 125.299 67.1143 125.056 66.9023 124.747C66.6903 124.429 66.5844 124.071 66.5844 123.674C66.5844 123.294 66.6727 122.949 66.8493 122.64C67.0348 122.331 67.3307 122.084 67.7369 121.898C68.152 121.713 68.7085 121.62 69.4062 121.62H71.6319V122.534H69.4592C68.8233 122.534 68.3949 122.64 68.1741 122.852C67.9533 123.064 67.8429 123.32 67.8429 123.621C67.8429 123.965 67.9798 124.243 68.2536 124.455C68.5274 124.658 68.9072 124.76 69.3929 124.76C69.8699 124.76 70.285 124.654 70.6383 124.442C71.0004 124.23 71.2609 123.921 71.4199 123.515L71.6716 124.389C71.5038 124.804 71.2079 125.135 70.784 125.383C70.36 125.621 69.8257 125.74 69.181 125.74ZM76.3729 125.661V119.421L76.6908 119.752H73.8028V118.639H80.2148V119.752H77.34L77.6447 119.421V125.661H76.3729ZM81.5153 125.661V118.639H82.7871V123.753L87.0927 118.639H88.2453V125.661H86.9735V120.547L82.6811 125.661H81.5153ZM92.6509 125.754C92.121 125.754 91.5999 125.687 91.0876 125.555C90.5842 125.413 90.1338 125.215 89.7363 124.959L90.1205 123.992C90.4561 124.203 90.8403 124.371 91.2731 124.495C91.7059 124.61 92.143 124.667 92.5846 124.667C92.9909 124.667 93.3398 124.619 93.6312 124.521C93.9315 124.424 94.1612 124.292 94.3201 124.124C94.4791 123.947 94.5586 123.744 94.5586 123.515C94.5586 123.188 94.4129 122.936 94.1214 122.759C93.83 122.583 93.4237 122.494 92.9026 122.494H91.6308V121.58H92.8231C93.1322 121.58 93.4016 121.545 93.6312 121.474C93.8609 121.404 94.0375 121.298 94.1612 121.156C94.2936 121.006 94.3599 120.834 94.3599 120.64C94.3599 120.428 94.2848 120.247 94.1347 120.097C93.9845 119.946 93.7725 119.832 93.4988 119.752C93.2338 119.673 92.9203 119.633 92.5581 119.633C92.2049 119.642 91.8428 119.69 91.4718 119.779C91.1097 119.867 90.7388 120.004 90.359 120.189L90.0145 119.196C90.4385 118.993 90.8536 118.838 91.2598 118.732C91.6749 118.617 92.0856 118.555 92.4919 118.547C93.1013 118.529 93.6445 118.6 94.1214 118.759C94.5983 118.909 94.9737 119.129 95.2475 119.421C95.5301 119.712 95.6714 120.057 95.6714 120.454C95.6714 120.79 95.5654 121.09 95.3535 121.355C95.1415 121.611 94.8589 121.814 94.5056 121.965C94.1523 122.115 93.7461 122.19 93.2868 122.19L93.3398 121.885C94.1258 121.885 94.7441 122.04 95.1945 122.349C95.6449 122.658 95.8702 123.077 95.8702 123.607C95.8702 124.031 95.7288 124.407 95.4462 124.733C95.1636 125.051 94.7794 125.303 94.2936 125.489C93.8167 125.665 93.2691 125.754 92.6509 125.754ZM102.109 125.661V124.177L102.043 123.899V121.368C102.043 120.83 101.884 120.415 101.566 120.123C101.257 119.823 100.789 119.673 100.162 119.673C99.7467 119.673 99.3404 119.743 98.943 119.885C98.5455 120.017 98.2099 120.198 97.9361 120.428L97.4062 119.474C97.7683 119.182 98.2011 118.962 98.7045 118.812C99.2168 118.653 99.7511 118.573 100.308 118.573C101.27 118.573 102.012 118.807 102.533 119.275C103.054 119.743 103.315 120.459 103.315 121.421V125.661H102.109ZM99.8041 125.74C99.283 125.74 98.8237 125.652 98.4263 125.475C98.0377 125.299 97.7374 125.056 97.5254 124.747C97.3135 124.429 97.2075 124.071 97.2075 123.674C97.2075 123.294 97.2958 122.949 97.4724 122.64C97.6579 122.331 97.9538 122.084 98.3601 121.898C98.7752 121.713 99.3316 121.62 100.029 121.62H102.255V122.534H100.082C99.4464 122.534 99.018 122.64 98.7972 122.852C98.5764 123.064 98.466 123.32 98.466 123.621C98.466 123.965 98.6029 124.243 98.8767 124.455C99.1505 124.658 99.5303 124.76 100.016 124.76C100.493 124.76 100.908 124.654 101.261 124.442C101.623 124.23 101.884 123.921 102.043 123.515L102.295 124.389C102.127 124.804 101.831 125.135 101.407 125.383C100.983 125.621 100.449 125.74 99.8041 125.74ZM105.605 125.661V118.639H106.877V124.548H110.719V118.639H111.991V125.661H105.605ZM111.898 127.29V125.595L112.216 125.661H110.719V124.548H113.103V127.29H111.898ZM114.752 125.661V118.639H116.024V125.661H114.752ZM115.388 117.288C115.14 117.288 114.933 117.209 114.765 117.05C114.606 116.891 114.527 116.696 114.527 116.467C114.527 116.228 114.606 116.029 114.765 115.87C114.933 115.711 115.14 115.632 115.388 115.632C115.635 115.632 115.838 115.711 115.997 115.87C116.165 116.021 116.249 116.211 116.249 116.44C116.249 116.679 116.169 116.882 116.01 117.05C115.851 117.209 115.644 117.288 115.388 117.288ZM122.995 125.661V123.197L123.193 123.435H120.955C120.018 123.435 119.285 123.236 118.755 122.839C118.234 122.441 117.974 121.863 117.974 121.103C117.974 120.291 118.252 119.677 118.808 119.262C119.374 118.847 120.124 118.639 121.061 118.639H124.134V125.661H122.995ZM117.908 125.661L119.815 122.971H121.127L119.272 125.661H117.908ZM122.995 122.799V119.394L123.193 119.752H121.1C120.517 119.752 120.067 119.863 119.749 120.083C119.431 120.295 119.272 120.649 119.272 121.143C119.272 122.062 119.864 122.521 121.047 122.521H123.193L122.995 122.799ZM133.419 125.767C132.836 125.767 132.32 125.674 131.869 125.489C131.427 125.303 131.048 125.029 130.73 124.667C130.412 124.296 130.169 123.833 130.001 123.276C129.842 122.711 129.763 122.048 129.763 121.289C129.763 120.688 129.816 120.15 129.922 119.673C130.028 119.196 130.178 118.772 130.372 118.401C130.575 118.03 130.822 117.708 131.114 117.434C131.414 117.16 131.75 116.935 132.121 116.758C132.501 116.573 132.916 116.431 133.366 116.334L136.572 115.619L136.758 116.798L133.803 117.434C133.627 117.469 133.415 117.522 133.167 117.593C132.92 117.663 132.668 117.774 132.412 117.924C132.156 118.065 131.918 118.264 131.697 118.52C131.476 118.776 131.299 119.112 131.167 119.527C131.034 119.933 130.968 120.437 130.968 121.037C130.968 121.205 130.973 121.333 130.981 121.421C130.99 121.51 130.999 121.598 131.008 121.686C131.026 121.775 131.039 121.907 131.048 122.084L130.518 121.541C130.659 121.055 130.884 120.631 131.193 120.269C131.503 119.907 131.873 119.628 132.306 119.434C132.748 119.231 133.229 119.129 133.75 119.129C134.404 119.129 134.982 119.271 135.486 119.553C135.998 119.836 136.4 120.225 136.691 120.719C136.983 121.214 137.129 121.779 137.129 122.415C137.129 123.06 136.974 123.638 136.665 124.15C136.365 124.654 135.936 125.051 135.38 125.343C134.823 125.625 134.17 125.767 133.419 125.767ZM133.538 124.707C133.989 124.707 134.386 124.61 134.731 124.415C135.075 124.212 135.344 123.943 135.539 123.607C135.733 123.263 135.83 122.879 135.83 122.455C135.83 122.031 135.733 121.655 135.539 121.329C135.344 121.002 135.075 120.746 134.731 120.56C134.386 120.366 133.98 120.269 133.512 120.269C133.07 120.269 132.673 120.362 132.32 120.547C131.966 120.724 131.692 120.975 131.498 121.302C131.304 121.62 131.207 121.991 131.207 122.415C131.207 122.839 131.304 123.228 131.498 123.581C131.701 123.925 131.975 124.199 132.32 124.402C132.673 124.605 133.079 124.707 133.538 124.707ZM138.945 125.661V118.639H140.217V125.661H138.945ZM139.581 117.288C139.334 117.288 139.126 117.209 138.958 117.05C138.799 116.891 138.72 116.696 138.72 116.467C138.72 116.228 138.799 116.029 138.958 115.87C139.126 115.711 139.334 115.632 139.581 115.632C139.828 115.632 140.031 115.711 140.19 115.87C140.358 116.021 140.442 116.211 140.442 116.44C140.442 116.679 140.363 116.882 140.204 117.05C140.045 117.209 139.837 117.288 139.581 117.288ZM144.634 125.754C144.104 125.754 143.583 125.687 143.071 125.555C142.567 125.413 142.117 125.215 141.719 124.959L142.103 123.992C142.439 124.203 142.823 124.371 143.256 124.495C143.689 124.61 144.126 124.667 144.568 124.667C144.974 124.667 145.323 124.619 145.614 124.521C145.915 124.424 146.144 124.292 146.303 124.124C146.462 123.947 146.542 123.744 146.542 123.515C146.542 123.188 146.396 122.936 146.104 122.759C145.813 122.583 145.407 122.494 144.886 122.494H143.614V121.58H144.806C145.115 121.58 145.385 121.545 145.614 121.474C145.844 121.404 146.02 121.298 146.144 121.156C146.277 121.006 146.343 120.834 146.343 120.64C146.343 120.428 146.268 120.247 146.118 120.097C145.967 119.946 145.756 119.832 145.482 119.752C145.217 119.673 144.903 119.633 144.541 119.633C144.188 119.642 143.826 119.69 143.455 119.779C143.093 119.867 142.722 120.004 142.342 120.189L141.998 119.196C142.421 118.993 142.837 118.838 143.243 118.732C143.658 118.617 144.069 118.555 144.475 118.547C145.084 118.529 145.627 118.6 146.104 118.759C146.581 118.909 146.957 119.129 147.23 119.421C147.513 119.712 147.654 120.057 147.654 120.454C147.654 120.79 147.548 121.09 147.336 121.355C147.124 121.611 146.842 121.814 146.489 121.965C146.135 122.115 145.729 122.19 145.27 122.19L145.323 121.885C146.109 121.885 146.727 122.04 147.177 122.349C147.628 122.658 147.853 123.077 147.853 123.607C147.853 124.031 147.712 124.407 147.429 124.733C147.147 125.051 146.762 125.303 146.277 125.489C145.8 125.665 145.252 125.754 144.634 125.754ZM149.787 125.661V118.639H151.058V121.62H155.059V118.639H156.331V125.661H155.059V122.72H151.058V125.661H149.787ZM161.931 125.74C161.18 125.74 160.517 125.586 159.943 125.277C159.378 124.967 158.937 124.544 158.619 124.005C158.309 123.466 158.155 122.848 158.155 122.15C158.155 121.452 158.305 120.834 158.605 120.295C158.914 119.757 159.334 119.337 159.864 119.037C160.403 118.728 161.008 118.573 161.679 118.573C162.359 118.573 162.96 118.723 163.481 119.024C164.002 119.324 164.408 119.748 164.699 120.295C165 120.834 165.15 121.466 165.15 122.19C165.15 122.243 165.145 122.305 165.137 122.375C165.137 122.446 165.132 122.512 165.123 122.574H159.149V121.66H164.461L163.944 121.978C163.953 121.527 163.86 121.126 163.666 120.772C163.472 120.419 163.202 120.145 162.858 119.951C162.522 119.748 162.129 119.646 161.679 119.646C161.237 119.646 160.844 119.748 160.5 119.951C160.155 120.145 159.886 120.423 159.692 120.785C159.497 121.139 159.4 121.545 159.4 122.004V122.216C159.4 122.684 159.506 123.104 159.718 123.475C159.939 123.837 160.244 124.12 160.632 124.323C161.021 124.526 161.467 124.627 161.97 124.627C162.385 124.627 162.761 124.557 163.096 124.415C163.441 124.274 163.741 124.062 163.997 123.78L164.699 124.601C164.381 124.972 163.984 125.254 163.507 125.449C163.039 125.643 162.514 125.74 161.931 125.74ZM170.183 125.74C169.468 125.74 168.827 125.586 168.262 125.277C167.706 124.967 167.269 124.544 166.951 124.005C166.633 123.466 166.474 122.848 166.474 122.15C166.474 121.452 166.633 120.834 166.951 120.295C167.269 119.757 167.706 119.337 168.262 119.037C168.827 118.728 169.468 118.573 170.183 118.573C170.819 118.573 171.384 118.701 171.879 118.957C172.382 119.205 172.771 119.576 173.045 120.07L172.078 120.693C171.848 120.348 171.565 120.097 171.23 119.938C170.903 119.77 170.55 119.686 170.17 119.686C169.711 119.686 169.3 119.787 168.938 119.991C168.576 120.194 168.289 120.481 168.077 120.852C167.865 121.214 167.759 121.647 167.759 122.15C167.759 122.653 167.865 123.091 168.077 123.462C168.289 123.833 168.576 124.12 168.938 124.323C169.3 124.526 169.711 124.627 170.17 124.627C170.55 124.627 170.903 124.548 171.23 124.389C171.565 124.221 171.848 123.965 172.078 123.621L173.045 124.23C172.771 124.716 172.382 125.091 171.879 125.356C171.384 125.612 170.819 125.74 170.183 125.74ZM174.958 128.31C174.623 128.31 174.296 128.253 173.978 128.138C173.66 128.032 173.386 127.873 173.157 127.661L173.7 126.707C173.877 126.875 174.071 127.003 174.283 127.092C174.495 127.18 174.72 127.224 174.958 127.224C175.268 127.224 175.524 127.145 175.727 126.986C175.93 126.827 176.12 126.544 176.297 126.138L176.734 125.171L176.866 125.012L179.622 118.639H180.867L177.462 126.363C177.259 126.858 177.03 127.246 176.773 127.529C176.526 127.811 176.252 128.01 175.952 128.125C175.652 128.249 175.321 128.31 174.958 128.31ZM176.628 125.886L173.422 118.639H174.747L177.476 124.892L176.628 125.886Z" fill="white"/>
</svg>
