<svg width="186" height="52" viewBox="0 0 186 52" fill="none" xmlns="http://www.w3.org/2000/svg">
<g clip-path="url(#clip0_157_39)">
<path d="M165.173 47.2133C160.527 47.2133 156.689 46.5849 153.682 45.3281C150.674 44.0713 148.408 42.4105 146.904 40.3682C145.4 38.3034 144.592 36.1264 144.525 33.8147C144.525 33.4332 144.66 33.119 144.906 32.8721C145.198 32.5803 145.535 32.4232 145.916 32.4232H157.856C158.529 32.4232 159.023 32.5355 159.36 32.7374C159.741 32.8945 160.145 33.1639 160.549 33.5005C160.976 33.7923 161.38 34.0616 161.806 34.3085C162.278 34.5105 162.771 34.69 163.31 34.8022C163.893 34.892 164.522 34.9369 165.195 34.9369C166.609 34.9369 167.754 34.7798 168.584 34.488C169.459 34.1514 169.908 33.7025 169.908 33.1639C169.908 32.6701 169.661 32.2437 169.145 31.907C168.674 31.5704 167.866 31.2786 166.699 31.0318C165.532 30.74 163.893 30.4707 161.806 30.2238C158.507 29.7525 155.634 28.9894 153.21 27.8897C150.787 26.79 148.901 25.3087 147.555 23.4235C146.253 21.4934 145.602 19.1368 145.602 16.3763C145.602 13.526 146.388 11.0124 147.981 8.83537C149.62 6.65838 151.864 4.95269 154.692 3.74076C157.587 2.52882 160.931 1.92285 164.746 1.92285C167.888 1.92285 170.671 2.34927 173.095 3.17967C175.519 3.98763 177.584 5.04246 179.245 6.38906C180.928 7.69077 182.207 9.10469 183.082 10.6084C183.958 12.1121 184.429 13.5709 184.474 14.9399C184.474 15.3215 184.317 15.6581 184.025 15.9499C183.778 16.1968 183.486 16.3314 183.15 16.3314H170.582C169.998 16.3314 169.504 16.2417 169.145 16.0845C168.808 15.9274 168.449 15.6581 168.068 15.3215C167.866 15.1195 167.462 14.8726 166.878 14.6257C166.34 14.334 165.622 14.1769 164.746 14.1769C163.691 14.1769 162.928 14.334 162.412 14.6706C161.941 14.9624 161.716 15.3888 161.716 15.9274C161.716 16.309 161.896 16.6681 162.278 17.0047C162.659 17.3414 163.355 17.6331 164.342 17.88C165.352 18.1269 166.789 18.3738 168.674 18.6431C172.871 19.1368 176.215 19.9672 178.728 21.0894C181.287 22.1891 183.127 23.6479 184.249 25.4883C185.417 27.3286 186 29.6178 186 32.3559C186 35.4082 185.08 38.0565 183.24 40.2784C181.444 42.5003 178.975 44.2284 175.833 45.4403C172.714 46.6298 169.145 47.2133 165.173 47.2133Z" fill="white"/>
<path d="M95.4418 47.2133C95.0602 47.2133 94.7011 47.0787 94.4094 46.8318C94.1401 46.54 94.0278 46.181 94.0278 45.7994C94.0278 45.6199 94.0503 45.4852 94.0952 45.3506L108.504 4.05496C108.638 3.58365 108.93 3.11234 109.401 2.64104C109.873 2.16973 110.546 1.92285 111.399 1.92285H125.426C126.279 1.92285 126.952 2.16973 127.423 2.64104C127.895 3.11234 128.209 3.58365 128.321 4.05496L142.73 45.3506C142.775 45.4852 142.797 45.6199 142.797 45.7994C142.797 46.181 142.64 46.54 142.348 46.8318C142.079 47.1011 141.765 47.2133 141.383 47.2133H129.443C128.635 47.2133 128.029 47.0338 127.625 46.6972C127.289 46.3156 127.042 45.9341 126.907 45.5974L125.359 41.3332H111.466L109.918 45.5974C109.783 45.9341 109.559 46.3156 109.199 46.6972C108.863 47.0338 108.257 47.2133 107.382 47.2133H95.4418ZM114.743 28.6977H122.037L118.379 16.6681L114.743 28.6977Z" fill="white"/>
<path d="M51.565 47.2132C51.0937 47.2132 50.6897 47.0337 50.3307 46.697C49.994 46.3604 49.8145 45.934 49.8145 45.4627V3.53866C49.8145 3.06735 49.994 2.64093 50.3307 2.30428C50.6673 1.96763 51.0937 1.78809 51.565 1.78809H61.7992C62.652 1.78809 63.2804 1.99007 63.6844 2.37161C64.0659 2.75315 64.3352 3.06735 64.4699 3.26934L75.4222 21.2464V3.53866C75.4222 3.06735 75.6018 2.64093 75.9384 2.30428C76.2751 1.96763 76.7015 1.78809 77.1728 1.78809H88.8882C89.3595 1.78809 89.7635 1.96763 90.1225 2.30428C90.4592 2.64093 90.6387 3.06735 90.6387 3.53866V45.4627C90.6387 45.934 90.4592 46.3604 90.1225 46.697C89.7859 47.0337 89.3595 47.2132 88.8882 47.2132H78.654C77.4174 47.2132 76.6777 47.2132 75.31 45.732C73.9422 44.2507 64.3577 29.1913 64.3577 29.1913L65.031 45.4851C65.031 45.9564 64.8514 46.3828 64.5148 46.7195C64.1781 47.0561 63.7517 47.2357 63.2804 47.2357H51.565V47.2132Z" fill="white"/>
<path d="M22.8248 1.78809C21.7026 1.78809 20.3336 1.78809 18.7177 1.78809C17.4384 1.78809 15.9796 1.78809 14.3637 1.78809H1.72813C1.25682 1.78809 0.852843 1.96763 0.516195 2.30428C0.179546 2.64093 0 3.04491 0 3.51622V23.4683L11.6929 11.7304L12.0071 11.4162L12.3213 11.7304L14.5657 13.9748L14.8799 14.289L14.5657 14.6032L5.40882 23.8274L14.5657 33.0515L14.8799 33.3657L14.5657 33.68L12.3213 35.9243L12.0071 36.2385L11.6929 35.9243L0 24.1865V29.2362C0 35.251 1.86279 39.7396 5.58837 42.7246C7.85514 44.52 10.5932 45.7544 13.7802 46.4726L22.8248 1.78809Z" fill="white"/>
<path d="M30.007 35.9243L29.6928 36.2385L29.3786 35.9243L27.1342 33.6799L26.82 33.3657L27.1342 33.0515L36.2911 23.8274L27.1342 14.6032L26.82 14.289L27.1342 13.9748L29.3786 11.7304L29.6928 11.4162L30.007 11.7304L41.6775 23.4683V3.51622C41.6775 3.04491 41.4979 2.64093 41.1613 2.30428C40.8246 1.96763 40.4207 1.78809 39.9493 1.78809H27.5831H27.3362C27.2465 1.78809 27.1118 1.78809 26.9547 1.78809L17.7979 47.0786C18.7854 47.1683 19.7953 47.2132 20.8277 47.2132C27.2689 47.2132 32.3411 45.7095 36.0667 42.7246C39.7922 39.6947 41.655 35.2061 41.655 29.2362V24.1865L30.007 35.9243Z" fill="white"/>
</g>
<defs>
<clipPath id="clip0_157_39">
<rect width="186" height="52" fill="white"/>
</clipPath>
</defs>
</svg>
