<svg width="44" height="44" viewBox="0 0 44 44" fill="none" xmlns="http://www.w3.org/2000/svg">
<path d="M36.2136 0H7.28643C3.26225 0 0 3.26034 0 7.28216V36.2178C0 40.2397 3.26225 43.5 7.28643 43.5H36.2136C40.2378 43.5 43.5 40.2397 43.5 36.2178V7.28216C43.5 3.26034 40.2378 0 36.2136 0Z" fill="url(#paint0_linear_2031_370)"/>
<path d="M14.5162 25.1737V20.2688C14.5162 18.8775 13.7708 18.217 12.5197 18.217C11.4788 18.217 10.579 18.8353 10.1851 19.4536C9.93194 18.6806 9.29911 18.217 8.30087 18.217C7.26 18.217 6.36013 18.8633 6.07887 19.2711V18.3856H4.29297V25.1733H6.07887V20.6063C6.34592 20.2269 6.86654 19.8053 7.48515 19.8053C8.21635 19.8053 8.4976 20.255 8.4976 20.8874V25.1733H10.2974V20.5921C10.5506 20.2266 11.0708 19.8049 11.7036 19.8049C12.4348 19.8049 12.7164 20.2546 12.7164 20.887V25.1733L14.5162 25.1737ZM19.424 25.3423C17.1881 25.3423 15.8383 23.7122 15.8383 21.7726C15.8383 19.8472 17.1881 18.217 19.424 18.217C21.674 18.217 23.0238 19.8472 23.0238 21.7726C23.0238 23.7122 21.674 25.3423 19.424 25.3423ZM19.424 23.7544C20.5352 23.7544 21.1676 22.8405 21.1676 21.7726C21.1676 20.7185 20.5348 19.8053 19.424 19.8053C18.3128 19.8053 17.6942 20.7185 17.6942 21.7726C17.6942 22.8409 18.3132 23.7544 19.424 23.7544ZM30.7158 25.1737V20.3813C30.7158 19.0603 29.9988 18.217 28.508 18.217C27.3968 18.217 26.5676 18.7512 26.1315 19.2711V18.3856H24.3456V25.1737H26.1315V20.6063C26.4266 20.1985 26.9753 19.8053 27.6784 19.8053C28.4377 19.8053 28.9299 20.1286 28.9299 21.0702V25.1737H30.7158ZM35.6374 25.3423C33.4015 25.3423 32.0517 23.7122 32.0517 21.7726C32.0517 19.8472 33.4015 18.217 35.6374 18.217C37.8874 18.217 39.2372 19.8472 39.2372 21.7726C39.2372 23.7122 37.8874 25.3423 35.6374 25.3423ZM35.6374 23.7544C36.7486 23.7544 37.381 22.8405 37.381 21.7726C37.381 20.7185 36.7482 19.8053 35.6374 19.8053C34.5262 19.8053 33.9076 20.7185 33.9076 21.7726C33.9076 22.8409 34.5266 23.7544 35.6374 23.7544Z" fill="white"/>
<defs>
<linearGradient id="paint0_linear_2031_370" x1="22.2546" y1="0.516669" x2="22.2546" y2="42.8945" gradientUnits="userSpaceOnUse">
<stop stop-color="#373B45"/>
<stop offset="1" stop-color="#181A1D"/>
</linearGradient>
</defs>
</svg>
