<svg width="17" height="28" viewBox="0 0 17 28" fill="none" xmlns="http://www.w3.org/2000/svg">
<g clip-path="url(#clip0_55_11)">
<path d="M10.2708 25.2C10.2708 24.7188 10.0974 24.3068 9.75065 23.9641C9.40386 23.6214 8.98698 23.45 8.5 23.45C8.01302 23.45 7.59614 23.6214 7.24935 23.9641C6.90256 24.3068 6.72917 24.7188 6.72917 25.2C6.72917 25.6812 6.90256 26.0932 7.24935 26.4359C7.59614 26.7786 8.01302 26.95 8.5 26.95C8.98698 26.95 9.40386 26.7786 9.75065 26.4359C10.0974 26.0932 10.2708 25.6812 10.2708 25.2ZM14.875 21.7V6.3C14.875 6.11042 14.8049 5.94635 14.6647 5.80781C14.5245 5.66927 14.3585 5.6 14.1667 5.6H2.83333C2.64149 5.6 2.47548 5.66927 2.33529 5.80781C2.1951 5.94635 2.125 6.11042 2.125 6.3V21.7C2.125 21.8896 2.1951 22.0536 2.33529 22.1922C2.47548 22.3307 2.64149 22.4 2.83333 22.4H14.1667C14.3585 22.4 14.5245 22.3307 14.6647 22.1922C14.8049 22.0536 14.875 21.8896 14.875 21.7ZM10.625 3.15C10.625 2.91667 10.5069 2.8 10.2708 2.8H6.72917C6.49306 2.8 6.375 2.91667 6.375 3.15C6.375 3.38333 6.49306 3.5 6.72917 3.5H10.2708C10.5069 3.5 10.625 3.38333 10.625 3.15ZM17 2.8V25.2C17 25.9583 16.7196 26.6146 16.1589 27.1687C15.5981 27.7229 14.934 28 14.1667 28H2.83333C2.06597 28 1.40191 27.7229 0.841146 27.1687C0.280382 26.6146 0 25.9583 0 25.2V2.8C0 2.04167 0.280382 1.38542 0.841146 0.83125C1.40191 0.277083 2.06597 0 2.83333 0H14.1667C14.934 0 15.5981 0.277083 16.1589 0.83125C16.7196 1.38542 17 2.04167 17 2.8Z" fill="white"/>
</g>
<defs>
<clipPath id="clip0_55_11">
<rect width="17" height="28" fill="white"/>
</clipPath>
</defs>
</svg>
