<svg width="44" height="44" viewBox="0 0 44 44" fill="none" xmlns="http://www.w3.org/2000/svg">
<g clip-path="url(#clip0_2031_378)">
<rect width="43.5" height="43.5" rx="3.5" fill="#E60C2A"/>
<path d="M33.6496 22.3027C33.6496 23.3318 34.5154 23.974 35.4323 23.974C36.3832 23.974 37.2151 23.3318 37.1894 22.385C37.2151 21.4053 36.3575 20.7632 35.3729 20.7632C34.456 20.7714 33.6835 21.3559 33.6496 22.3027ZM24.2438 25.6536H22.0536V18.038H24.2692L26.2556 20.9937L28.2166 18.038H30.4322V25.6618H28.2421V21.5617L26.2556 24.3775L24.2438 21.5617V25.6536ZM16.7564 24.7068L13.3354 18.038H15.7547L17.86 22.0887L17.9449 21.8911L19.1843 18.038H21.6291L19.1503 24.6244C18.3694 26.8309 17.079 27.9753 14.7785 28V25.7935C15.933 25.7935 16.5612 25.4889 16.7649 24.7315V24.7068H16.7564ZM7.77506 25.6536H5.5V18.038H12.8939V25.6618H10.5934V20.0798H7.77506V25.6536ZM35.5512 26.0488C33.2166 26.0488 31.2641 24.2622 31.2641 21.8088C31.2641 19.3553 32.3592 17.6181 34.923 16.5066C35.3219 16.3091 35.9586 16.0868 36.4764 15.6422C36.6801 15.4775 36.9094 15.1976 37.0196 15L38.9212 16.1444C38.4882 17.2641 37.3931 17.6757 36.3322 18.0956C35.3219 18.4579 34.3711 18.8531 33.9976 19.7422L34.057 19.7669C34.6003 19.2894 35.356 19.0671 36.1028 19.0671C37.8856 19.0671 39.5579 20.4338 39.4985 22.418C39.439 24.9044 37.4188 26.0488 35.5512 26.0488Z" fill="white"/>
</g>
<defs>
<clipPath id="clip0_2031_378">
<rect width="44" height="44" fill="white"/>
</clipPath>
</defs>
</svg>
