<svg width="44" height="44" viewBox="0 0 44 44" fill="none" xmlns="http://www.w3.org/2000/svg">
<path d="M43.2445 22.0495C43.1968 33.6943 33.4574 43.0845 21.5271 43.038C9.59678 42.9916 -0.0474502 33.5084 0.000175635 21.8635C0.0478015 10.2187 9.78729 0.828441 21.7176 0.874928C33.6717 0.921414 43.2921 10.4046 43.2445 22.0495Z" fill="#221F1F"/>
<path d="M29.4107 32.3926C27.1246 36.3904 24.2909 39.6677 21.1238 39.598C19.1473 39.5514 17.2661 38.8309 15.5516 37.692C16.0993 36.7158 19.5522 31.8347 29.4107 32.3926ZM42.6745 22.0493C42.6269 33.3688 33.1494 42.5266 21.5286 42.4569C9.90791 42.4104 0.573242 33.1828 0.573242 21.8634C0.573242 14.5185 4.33569 9.24232 7.90762 6.40666C12.2892 2.94342 15.2658 5.59314 16.3136 7.6153C16.1945 6.75531 15.8373 4.29152 14.8609 2.52504C17.0041 1.8045 19.314 1.40937 21.7192 1.43261C33.3398 1.50234 42.7221 10.7066 42.6745 22.0493ZM20.5046 10.2418C23.5527 8.21962 28.8154 7.10395 31.6014 11.3342C29.9108 1.66504 22.6002 7.22017 20.5046 10.2418ZM16.2659 19.3764C16.9089 18.6791 17.6471 17.9817 18.5044 17.3542C22.3144 14.4953 26.4817 13.7747 27.8391 15.7736C28.363 16.5407 28.3867 17.6098 27.9819 18.7721C29.3393 16.5872 29.7679 14.565 28.9344 13.4494C27.5295 11.5898 23.1717 12.8682 19.1949 16.3082C18.0281 17.2612 17.0518 18.3304 16.2659 19.3764ZM9.62216 21.0963C11.551 21.445 13.6465 19.051 14.2895 15.7039C14.9324 12.3569 13.9085 9.38179 11.9796 9.00989C10.0508 8.66124 7.95524 11.0553 7.3123 14.4024C6.66935 17.7261 7.6933 20.7245 9.62216 21.0963ZM36.4355 17.052C17.9805 29.1153 5.24058 23.0023 5.24058 23.0023C5.05007 27.1861 12.4083 40.0396 21.1715 40.2023C29.9584 40.3649 36.4355 17.052 36.4355 17.052ZM7.83618 14.472C8.43151 11.4039 10.2413 9.17259 11.8844 9.498C13.5274 9.80016 14.3847 12.5428 13.8132 15.611C13.2179 18.6791 11.4081 20.9104 9.76503 20.585C8.09812 20.2829 7.24086 17.5402 7.83618 14.472ZM11.3367 17.0753C12.0749 17.238 12.8845 16.3547 13.1703 15.1228C13.4561 13.891 13.075 12.7521 12.3368 12.6126C11.8368 12.4964 11.3129 12.8682 10.9318 13.4958C11.2652 13.6585 11.4319 14.077 11.2652 14.4255C11.1224 14.7509 10.789 14.9137 10.4556 14.8439C10.3127 15.9364 10.6699 16.9126 11.3367 17.0753Z" fill="#05BC52"/>
</svg>
