<svg width="76" height="76" viewBox="0 0 76 76" fill="none" xmlns="http://www.w3.org/2000/svg">
<g clip-path="url(#clip0_2031_487)">
<path d="M38 0C27.9241 0 18.2519 4.00603 11.1328 11.1298C4.00646 18.2565 0.00203923 27.9216 0 38C0 48.0742 4.00781 57.7463 11.1328 64.8702C18.2519 71.994 27.9241 76 38 76C48.0759 76 57.7481 71.994 64.8672 64.8702C71.9922 57.7463 76 48.0742 76 38C76 27.9258 71.9922 18.2537 64.8672 11.1298C57.7481 4.00603 48.0759 0 38 0Z" fill="url(#paint0_linear_2031_487)"/>
<path d="M17.2007 37.5986C28.28 32.7726 35.6663 29.5909 39.3594 28.0535C49.9163 23.6639 52.1072 22.9015 53.5382 22.8757C53.8529 22.8707 54.5535 22.9484 55.0107 23.3181C55.3907 23.6298 55.4975 24.0513 55.551 24.3473C55.5985 24.643 55.6638 25.3169 55.6104 25.843C55.0404 31.8517 52.5644 46.433 51.3057 53.1632C50.7772 56.0108 49.7263 56.9656 48.711 57.0588C46.5022 57.2618 44.8279 55.6005 42.6904 54.1999C39.3475 52.0072 37.4594 50.6427 34.2116 48.5034C30.4591 46.0311 32.8935 44.672 35.031 42.4514C35.5891 41.8701 45.3147 33.0262 45.4988 32.224C45.5225 32.1237 45.5463 31.7496 45.3207 31.5525C45.101 31.3548 44.7744 31.4224 44.5369 31.4759C44.1985 31.5519 38.8607 35.0835 28.5057 42.0702C26.9916 43.1116 25.62 43.6193 24.385 43.5925C23.0313 43.5634 20.4188 42.8254 18.4772 42.1949C16.1022 41.4212 14.2082 41.0121 14.3744 39.6981C14.4576 39.0141 15.4016 38.3141 17.2007 37.5986Z" fill="white"/>
</g>
<defs>
<linearGradient id="paint0_linear_2031_487" x1="3800" y1="0" x2="3800" y2="7600" gradientUnits="userSpaceOnUse">
<stop stop-color="#2AABEE"/>
<stop offset="1" stop-color="#229ED9"/>
</linearGradient>
<clipPath id="clip0_2031_487">
<rect width="76" height="76" fill="white"/>
</clipPath>
</defs>
</svg>
